<svg width="24" height="24" viewBox="0 0 24 24" fill="none" xmlns="http://www.w3.org/2000/svg">
<path d="M24 0V24H0V0H24Z" fill="white" fill-opacity="0.01"/>
<path fill-rule="evenodd" clip-rule="evenodd" d="M4.87142 4.22374C6.63397 2.89468 9.01156 2.50813 11.1759 3.76704C11.5025 3.95702 11.7272 4.08758 11.8904 4.17601C11.9916 4.23084 12.0084 4.23084 12.1096 4.17601C12.2728 4.08758 12.4975 3.95702 12.8241 3.76704C14.9884 2.50813 17.366 2.89468 19.1286 4.22374C20.8781 5.54298 22.0561 7.79931 21.9979 10.3931C21.917 14.0022 19.1073 17.1867 14.3194 20.0308C12.8924 20.8785 11.1076 20.8785 9.68057 20.0308C4.89274 17.1867 2.083 14.0022 2.00206 10.3931C1.94389 7.79931 3.12191 5.54298 4.87142 4.22374Z" fill="#F7F9FC"/>
</svg>
