<svg width="24" height="24" viewBox="0 0 24 24" fill="none" xmlns="http://www.w3.org/2000/svg">
<path d="M24 0V24H0V0H24Z" fill="white" fill-opacity="0.01"/>
<path fill-rule="evenodd" clip-rule="evenodd" d="M6 4.5C2.96243 4.5 0.5 6.96243 0.5 10C0.5 12.0377 1.60887 13.8146 3.24891 14.7633C3.966 15.1781 4.88359 14.9331 5.29841 14.216C5.71322 13.4989 5.46818 12.5813 4.75109 12.1665C3.99992 11.7319 3.5 10.9235 3.5 10C3.5 8.61929 4.61929 7.5 6 7.5H12C13.3807 7.5 14.5 8.61929 14.5 10C14.5 11.1628 13.7047 12.1437 12.6261 12.4213C11.8238 12.6278 11.3409 13.4456 11.5473 14.2479C11.7538 15.0501 12.5716 15.5331 13.3739 15.3266C15.7458 14.7162 17.5 12.5648 17.5 10C17.5 6.96243 15.0376 4.5 12 4.5H6ZM11.3739 11.5787C12.1762 11.3722 12.6591 10.5544 12.4527 9.75213C12.2462 8.94985 11.4284 8.46687 10.6261 8.67336C8.25425 9.28384 6.5 11.4352 6.5 14C6.5 17.0376 8.96243 19.5 12 19.5H18C21.0376 19.5 23.5 17.0376 23.5 14C23.5 11.9623 22.3911 10.1854 20.7511 9.23672C20.034 8.82191 19.1164 9.06695 18.7016 9.78404C18.2868 10.5011 18.5318 11.4187 19.2489 11.8335C20.0001 12.2681 20.5 13.0765 20.5 14C20.5 15.3807 19.3807 16.5 18 16.5H12C10.6193 16.5 9.5 15.3807 9.5 14C9.5 12.8372 10.2953 11.8563 11.3739 11.5787Z" fill="#F7F9FC"/>
</svg>
