<svg width="24" height="24" viewBox="0 0 24 24" fill="none" xmlns="http://www.w3.org/2000/svg">
<path d="M24 0V24H0V0H24Z" fill="white" fill-opacity="0.01"/>
<path fill-rule="evenodd" clip-rule="evenodd" d="M14.0634 3.5H9.93657H9.93655C8.34669 3.49998 7.06488 3.49996 6.0459 3.62041C4.99133 3.74506 4.08891 4.01052 3.32804 4.63495C3.07486 4.84272 2.84272 5.07486 2.63495 5.32804C2.54134 5.44209 2.45581 5.55933 2.3776 5.67979L7.51871 9.96405C8.76266 11.0007 9.62631 11.7181 10.3554 12.187C11.0613 12.641 11.5399 12.7933 12 12.7933C12.4601 12.7933 12.9387 12.641 13.6446 12.187C14.3737 11.7181 15.2373 11.0007 16.4813 9.96404L21.6224 5.67979C21.5442 5.55933 21.4587 5.44209 21.3651 5.32804C21.1573 5.07486 20.9251 4.84272 20.672 4.63495C19.9111 4.01052 19.0087 3.74506 17.9541 3.62041C16.9351 3.49996 15.6533 3.49998 14.0635 3.5H14.0634ZM22.3313 7.69242L17.7617 11.5005L17.7115 11.5423C16.5297 12.5271 15.5718 13.3254 14.7264 13.8691C13.8458 14.4355 12.9881 14.7933 12 14.7933C11.0119 14.7933 10.1542 14.4355 9.27357 13.8691C8.42815 13.3254 7.47028 12.5271 6.28847 11.5423L6.28846 11.5423L6.23834 11.5005L1.66866 7.69242C1.65054 7.80829 1.63457 7.92612 1.62041 8.0459C1.49996 9.06488 1.49998 10.3467 1.5 11.9366V11.9366V12.0634V12.0634C1.49998 13.6533 1.49996 14.9351 1.62041 15.9541C1.74506 17.0087 2.01052 17.9111 2.63495 18.672C2.84272 18.9251 3.07486 19.1573 3.32804 19.3651C4.08891 19.9895 4.99133 20.2549 6.0459 20.3796C7.06488 20.5 8.3467 20.5 9.93657 20.5H14.0634C15.6533 20.5 16.9351 20.5 17.9541 20.3796C19.0087 20.2549 19.9111 19.9895 20.672 19.3651C20.9251 19.1573 21.1573 18.9251 21.3651 18.672C21.9895 17.9111 22.2549 17.0087 22.3796 15.9541C22.5 14.9351 22.5 13.6533 22.5 12.0634V11.9366C22.5 10.3467 22.5 9.06489 22.3796 8.0459C22.3654 7.92612 22.3495 7.80829 22.3313 7.69242Z" fill="#F7F9FC"/>
</svg>
