<svg width="24" height="24" viewBox="0 0 24 24" fill="none" xmlns="http://www.w3.org/2000/svg">
<path d="M24 0V24H0V0H24Z" fill="white" fill-opacity="0.01"/>
<path fill-rule="evenodd" clip-rule="evenodd" d="M10.4169 6.50019H13.583C13.1837 6.10699 12.8822 5.82501 12.6182 5.62364C12.2703 5.35817 12.1076 5.32861 11.9999 5.32861C11.8923 5.32861 11.7296 5.35817 11.3817 5.62363C11.1177 5.82501 10.8162 6.10699 10.4169 6.50019ZM16.4511 6.53712L15.4889 5.57496C14.8621 4.94808 14.3221 4.40795 13.8314 4.03359C13.3056 3.63239 12.7207 3.32861 11.9999 3.32861C11.2792 3.32861 10.6943 3.63239 10.1685 4.03359C9.67783 4.40795 9.13777 4.94808 8.51096 5.57495C8.4955 5.59042 8.47998 5.60594 8.46441 5.62151L7.5488 6.53712C7.42063 6.54423 7.29718 6.55271 7.17828 6.56282C6.41953 6.62736 5.75434 6.76379 5.14296 7.09058C4.27083 7.55675 3.55651 8.27106 3.09034 9.1432C2.76355 9.75458 2.62712 10.4198 2.56258 11.1785C2.48288 12.1156 2.49995 13.0607 2.49995 14.0002C2.49995 14.9396 2.48288 15.8848 2.56258 16.8219C2.62712 17.5806 2.76355 18.2458 3.09034 18.8572C3.55651 19.7293 4.27083 20.4436 5.14296 20.9098C5.75434 21.2366 6.41953 21.373 7.17828 21.4375C7.91493 21.5002 8.82587 21.5002 9.95531 21.5002H14.0446C15.174 21.5002 16.085 21.5002 16.8216 21.4375C17.5804 21.373 18.2456 21.2366 18.8569 20.9098C19.7291 20.4436 20.4434 19.7293 20.9096 18.8572C21.2363 18.2458 21.3728 17.5806 21.4373 16.8219C21.517 15.8848 21.4999 14.9396 21.4999 14.0002C21.4999 13.0607 21.517 12.1156 21.4373 11.1785C21.3728 10.4198 21.2363 9.75458 20.9096 9.1432C20.4434 8.27106 19.7291 7.55675 18.8569 7.09058C18.2456 6.76379 17.5804 6.62736 16.8216 6.56282C16.7027 6.55271 16.5793 6.54423 16.4511 6.53712ZM13.9999 13.0002H7.99995C7.44766 13.0002 6.99995 12.5525 6.99995 12.0002C6.99995 11.4479 7.44766 11.0002 7.99995 11.0002H13.9999C14.5522 11.0002 14.9999 11.4479 14.9999 12.0002C14.9999 12.5525 14.5522 13.0002 13.9999 13.0002ZM9.99995 17.0002H7.99995C7.44766 17.0002 6.99995 16.5525 6.99995 16.0002C6.99995 15.4479 7.44766 15.0002 7.99995 15.0002H9.99995C10.5522 15.0002 10.9999 15.4479 10.9999 16.0002C10.9999 16.5525 10.5522 17.0002 9.99995 17.0002Z" fill="#F7F9FC"/>
</svg>
